<?xml version="1.0" encoding="UTF-8"?>
<svg version="1.1" xmlns="http://www.w3.org/2000/svg" width="400" height="300">
<path d="M0 0 C132 0 264 0 400 0 C400 99 400 198 400 300 C268 300 136 300 0 300 C0 201 0 102 0 0 Z " fill="#01274D" transform="translate(0,0)"/>
<path d="M0 0 C1.35117416 0.0001133 1.35117416 0.0001133 2.72964478 0.00022888 C3.70364227 0.00539017 4.67763977 0.01055145 5.68115234 0.01586914 C6.67714447 0.01728409 7.6731366 0.01869904 8.6993103 0.02015686 C11.88860037 0.02576603 15.0778209 0.03832009 18.26708984 0.05102539 C20.425943 0.05603921 22.58479725 0.06060232 24.74365234 0.06469727 C30.04315534 0.07573844 35.34261763 0.09248552 40.64208984 0.11352539 C32.36832003 8.4528847 23.19132151 15.52715992 13.77539062 22.51245117 C8.54506384 26.40331912 3.44471899 30.43228495 -1.62475586 34.52954102 C-7.15527821 38.98599879 -12.78996809 43.29859112 -18.46118164 47.57421875 C-21.81136467 50.11204004 -25.12171291 52.68912822 -28.35791016 55.37133789 C-28.93541016 55.84974121 -29.51291016 56.32814453 -30.10791016 56.82104492 C-31.58964189 58.05345637 -31.58964189 58.05345637 -31.35791016 60.11352539 C-9.70619291 62.64786606 -9.70619291 62.64786606 10.19848633 56.88818359 C12.25930883 54.9730117 14.15731054 52.96708816 16.00146484 50.84301758 C19.34200875 47.32152755 23.34622311 44.53839778 27.20458984 41.61352539 C27.96843994 41.01459473 28.73229004 40.41566406 29.51928711 39.79858398 C33.64334272 36.56538326 33.64334272 36.56538326 35.64208984 35.11352539 C36.3667041 34.5633374 37.09131836 34.01314941 37.83789062 33.44628906 C41.75957755 31.58241226 45.15698486 31.73815997 49.44287109 31.82055664 C50.27924606 31.82480148 51.11562103 31.82904633 51.9773407 31.8334198 C54.6367575 31.85015175 57.29540385 31.88779313 59.95458984 31.92602539 C61.76252157 31.94107935 63.57046523 31.95476651 65.37841797 31.96704102 C69.79993673 32.00003723 74.22088286 32.05178111 78.64208984 32.11352539 C49.70065724 61.31228244 49.70065724 61.31228244 35.66517639 61.71917725 C34.95759689 61.72040588 34.2500174 61.72163452 33.52099609 61.72290039 C32.7762352 61.73943665 32.0314743 61.7559729 31.2641449 61.77301025 C28.91087337 61.82117152 26.55824635 61.84278833 24.20458984 61.86352539 C22.59843818 61.89171202 20.99231612 61.92164318 19.38623047 61.95336914 C15.4715701 62.0269207 11.55726083 62.07668868 7.64208984 62.11352539 C8.37195618 66.58084255 9.42110374 68.32389929 12.76708984 71.42602539 C18.88150921 77.26869278 24.23723277 83.62427889 29.64208984 90.11352539 C24.37691442 90.26266967 19.11298774 90.371112 13.84619141 90.44311523 C12.05756187 90.47315181 10.26907795 90.51399491 8.48095703 90.56616211 C-8.30132139 91.04325029 -8.30132139 91.04325029 -13.36572266 87.32446289 C-15.05224609 85.66870117 -15.05224609 85.66870117 -16.35791016 84.11352539 C-17.00501953 83.45868164 -17.65212891 82.80383789 -18.31884766 82.12915039 C-18.78548828 81.54649414 -19.25212891 80.96383789 -19.73291016 80.36352539 C-23.22002922 76.17096615 -27.06758403 72.44972382 -31.02587891 68.70336914 C-37.57761696 61.42731834 -38.02691467 55.89180722 -37.93432617 46.20751953 C-37.92045778 44.18297738 -37.95458622 42.16306922 -37.99267578 40.13891602 C-37.98133521 32.53695309 -37.72231229 26.79513585 -32.35791016 21.11352539 C-30.10857935 18.92180961 -27.74186059 16.99932942 -25.23291016 15.11352539 C-24.57782471 14.60587646 -23.92273926 14.09822754 -23.24780273 13.57519531 C-21.29641997 12.07140577 -19.33100912 10.58866862 -17.35791016 9.11352539 C-16.78508301 8.68378418 -16.21225586 8.25404297 -15.62207031 7.8112793 C-5.14259456 -0.01436479 -5.14259456 -0.01436479 0 0 Z " fill="#FAFCFC" transform="translate(189.35791015625,104.886474609375)"/>
<path d="M0 0 C3.5 0.25 3.5 0.25 5.5 2.25 C5.875 5.6875 5.875 5.6875 5.5 9.25 C3.8125 11.25 3.8125 11.25 1.5 12.25 C-1.33367793 12.11177181 -2.98596785 11.57555369 -5.375 10.0625 C-6.5 8.25 -6.5 8.25 -6.3125 5.1875 C-5.1349572 0.93022989 -4.44973638 0.31783831 0 0 Z " fill="#595F88" transform="translate(234.5,183.75)"/>
<path d="M0 0 C0.99 0.495 0.99 0.495 2 1 C3.56579969 9.73499576 3.11105553 18.71714759 3.0625 27.5625 C3.05747543 29.15950381 3.05291421 30.75650914 3.04882812 32.35351562 C3.03789728 36.23571533 3.02068533 40.11784051 3 44 C2.01 44 1.02 44 0 44 C0 29.48 0 14.96 0 0 Z " fill="#026CB3" transform="translate(0,256)"/>
<path d="M0 0 C0.33 0 0.66 0 1 0 C1.33 8.58 1.66 17.16 2 26 C3.32 26.33 4.64 26.66 6 27 C6 28.32 6 29.64 6 31 C22.335 31.495 22.335 31.495 39 32 C39 32.33 39 32.66 39 33 C26.79 33.33 14.58 33.66 2 34 C-0.14082246 29.71835508 -0.2351031 27.74216604 -0.1953125 23.046875 C-0.1924826 22.38665344 -0.18965271 21.72643188 -0.18673706 21.04620361 C-0.17558415 18.94728103 -0.15048946 16.84879258 -0.125 14.75 C-0.11496384 13.32292285 -0.1058391 11.89583898 -0.09765625 10.46875 C-0.07566111 6.97902672 -0.04116536 3.48955577 0 0 Z " fill="#BEC3D8" transform="translate(152,134)"/>
<path d="M0 0 C-1.0234375 1.46582031 -1.0234375 1.46582031 -3 3 C-5.61439607 3.34325166 -8.00475193 3.51214687 -10.625 3.546875 C-11.36830566 3.56719788 -12.11161133 3.58752075 -12.87744141 3.60845947 C-14.44743131 3.64863216 -16.01761358 3.68181039 -17.58789062 3.70849609 C-19.9915068 3.74985386 -22.39383364 3.81248312 -24.796875 3.87890625 C-26.32288741 3.91531044 -27.84892919 3.95050734 -29.375 3.984375 C-30.09381348 4.0019989 -30.81262695 4.0196228 -31.55322266 4.03778076 C-34.66740669 4.0861243 -37.01886983 3.99371006 -40 3 C-40 2.34 -40 1.68 -40 1 C-35.26777475 0.85643725 -30.53551585 0.71405943 -25.80322266 0.57275391 C-24.19514007 0.52457287 -22.58706696 0.47607458 -20.97900391 0.42724609 C-18.66050629 0.35690158 -16.34197641 0.28771819 -14.0234375 0.21875 C-13.31069672 0.19687622 -12.59795593 0.17500244 -11.86361694 0.15246582 C-7.9075072 0.03603213 -3.95777099 -0.02165675 0 0 Z " fill="#272A59" transform="translate(237,165)"/>
<path d="M0 0 C0.33 0.66 0.66 1.32 1 2 C0.24074219 2.60328125 -0.51851562 3.2065625 -1.30078125 3.828125 C-2.29464844 4.62734375 -3.28851563 5.4265625 -4.3125 6.25 C-5.29863281 7.03890625 -6.28476563 7.8278125 -7.30078125 8.640625 C-9.9799662 10.81491275 -9.9799662 10.81491275 -11.6015625 13.15234375 C-13.22483844 15.29706308 -14.65554657 16.1472646 -17.0625 17.3125 C-17.75472656 17.65925781 -18.44695312 18.00601563 -19.16015625 18.36328125 C-20.07087891 18.67845703 -20.07087891 18.67845703 -21 19 C-21.66 18.67 -22.32 18.34 -23 18 C-15.55095104 11.6559583 -8.00346998 5.64024066 0 0 Z " fill="#0C1027" transform="translate(231,105)"/>
<path d="M0 0 C0.99 0.66 1.98 1.32 3 2 C3 2.66 3 3.32 3 4 C9.93 4.33 16.86 4.66 24 5 C24 5.33 24 5.66 24 6 C14.76 6 5.52 6 -4 6 C-2 2 -2 2 0 0 Z M3 0 C5 1 5 1 5 1 Z " fill="#10195C" transform="translate(161,159)"/>
<path d="M0 0 C0.66 0.66 1.32 1.32 2 2 C0.11070739 3.63316841 -1.78577627 5.25641685 -3.6875 6.875 C-4.48317383 7.56529297 -4.48317383 7.56529297 -5.29492188 8.26953125 C-8.38165606 10.88283995 -11.14170096 12.75446376 -15 14 C-12.10423426 9.39141962 -10.25359453 6.83875809 -5 5 C-2.22847788 2.47943955 -2.22847788 2.47943955 0 0 Z " fill="#0A0E32" transform="translate(220,141)"/>
<path d="M0 0 C0.99 0.33 1.98 0.66 3 1 C1.71563539 3.56872921 0.14692413 5.09843863 -2 7 C-4 7.625 -4 7.625 -6 8 C-7.3479743 8.63654342 -8.68596724 9.29605388 -10 10 C-8.58768539 6.64117925 -6.96631022 4.86670953 -4.0625 2.6875 C-3.37285156 2.15511719 -2.68320313 1.62273437 -1.97265625 1.07421875 C-1.32167969 0.71972656 -0.67070312 0.36523438 0 0 Z " fill="#0B0E35" transform="translate(205,125)"/>
<path d="M0 0 C-1.34603482 4.03810445 -3.65336723 5.47295076 -7 8 C-7.66 8 -8.32 8 -9 8 C-9 8.66 -9 9.32 -9 10 C-10.32 10.33 -11.64 10.66 -13 11 C-11.52841629 7.38502261 -9.58537669 5.59408489 -6.5 3.25 C-5.7059375 2.63640625 -4.911875 2.0228125 -4.09375 1.390625 C-2 0 -2 0 0 0 Z " fill="#0E1327" transform="translate(260,145)"/>
<path d="M0 0 C1.875 0.125 1.875 0.125 4 1 C4.70626239 2.98636298 5.36893571 4.98848259 6 7 C7.99935694 9.33531458 7.99935694 9.33531458 10 11 C9.67 11.66 9.34 12.32 9 13 C7.48807379 11.59606852 5.99078112 10.17636465 4.5 8.75 C3.6646875 7.96109375 2.829375 7.1721875 1.96875 6.359375 C0 4 0 4 0 0 Z " fill="#070B43" transform="translate(196,167)"/>
<path d="M0 0 C0.99 0.66 1.98 1.32 3 2 C0.47111299 4.79983919 -1.19713015 6.50930712 -5 7 C-5.99 7 -6.98 7 -8 7 C-2.25 2 -2.25 2 0 2 C0 1.34 0 0.68 0 0 Z " fill="#0D151F" transform="translate(269,136)"/>
<path d="M0 0 C0.70125 0.515625 1.4025 1.03125 2.125 1.5625 C5.60887535 3.30443767 7.2983569 2.94693195 11 2 C11.33 2.99 11.66 3.98 12 5 C8.69564916 6.12377697 6.9493138 5.89554742 3.75 4.5625 C3.04359375 4.27503906 2.3371875 3.98757812 1.609375 3.69140625 C1.07828125 3.46324219 0.5471875 3.23507813 0 3 C0 2.01 0 1.02 0 0 Z " fill="#060D45" transform="translate(228,192)"/>
<path d="M0 0 C2.97 0.495 2.97 0.495 6 1 C1.25 5.875 1.25 5.875 -1 7 C-0.67 4.69 -0.34 2.38 0 0 Z " fill="#E7EFF4" transform="translate(168,148)"/>
<path d="M0 0 C1.65 0 3.3 0 5 0 C5 1.65 5 3.3 5 5 C4.34 5 3.68 5 3 5 C2.67 4.67 2.34 4.34 2 4 C1.01 4.495 1.01 4.495 0 5 C0 3.35 0 1.7 0 0 Z " fill="#8385B3" transform="translate(232,187)"/>
<path d="M0 0 C0.66 0 1.32 0 2 0 C1.67 1.65 1.34 3.3 1 5 C-1.31 5.33 -3.62 5.66 -6 6 C-4 4 -2 2 0 0 Z " fill="#080D3B" transform="translate(187,139)"/>
<path d="M0 0 C0.99 0.33 1.98 0.66 3 1 C3 2.98 3 4.96 3 7 C1.2925002 5.71937515 -0.37373596 4.38232443 -2 3 C-2 2.34 -2 1.68 -2 1 C-1.34 0.67 -0.68 0.34 0 0 Z " fill="#0B1546" transform="translate(213,184)"/>
<path d="M0 0 C-1.125 1.5625 -1.125 1.5625 -3 3 C-6.1875 2.6875 -6.1875 2.6875 -9 2 C-5.5647952 -0.29013653 -4.014669 -0.17842973 0 0 Z " fill="#0C103C" transform="translate(237,165)"/>
<path d="M0 0 C0.66 0.33 1.32 0.66 2 1 C0.9024777 3.99324263 0.32317108 4.84610901 -2.625 6.25 C-3.40875 6.4975 -4.1925 6.745 -5 7 C-2.25 1.125 -2.25 1.125 0 0 Z " fill="#080D41" transform="translate(170,112)"/>
</svg>
